<svg viewBox="0 0 200 200" version="1.1" xmlns="http://www.w3.org/2000/svg" title="animated image from https://www.brandevolutionco.com/" desc="Created using Brand Evolution svg converter at https://www.brandevolutionco.com/animate/" class="animate-svg"><defs><style>.animate-svg path{-webkit-animation:draw ease-in-out forwards;animation:draw ease-in-out forwards;stroke:#000}.animate-svg{-webkit-animation:fillopacity 3 ease-in-out forwards;animation:fillopacity 3s ease-in-out forwards}@-webkit-keyframes draw{100%{stroke-dashoffset:0}}@keyframes draw{100%{stroke-dashoffset:0}}@-webkit-keyframes fillopacity{0%,70%{fill-opacity:0;stroke-width:0.5%}100%{fill-opacity:1;stroke-width:0}}@keyframes fillopacity{0%,70%{fill-opacity:0;stroke-width:0.5%}100%{fill-opacity:1;stroke-width:0}}</style></defs><path fill="rgb(0,0,0)" stroke="rgb(0,0,0)" stroke-width="null" opacity="0" d="M 0 0 L 200 0 L 200 200 L 0 200 L 0 0 Z M 117 39 Q 88 41 72 55 Q 50 70 45 103 Q 45 126 56 139 Q 71 160 102 166 Q 129 169 141 156 Q 165 132 169 88 Q 170 67 162 56 Q 149 38 117 39 Z " style="stroke-dasharray: 1198.9; stroke-dashoffset: 1198.9; animation-delay: 0s; animation-duration: 2.1098s;"></path><path fill="rgb(0,0,0)" stroke="rgb(0,0,0)" stroke-width="null" opacity="0" d="M 125.5 69 Q 141 67.5 147 75.5 L 148 78.5 L 143.5 85 L 127.5 81 L 117 86.5 L 114 100.5 L 119.5 109 L 132.5 112 L 142.5 108 L 148 115.5 L 144.5 120 L 124.5 124 L 107 112.5 L 102 92.5 L 113.5 74 L 125.5 69 Z " style="stroke-dasharray: 223.206; stroke-dashoffset: 223.206; animation-delay: 0.0222222s; animation-duration: 0.443613s;"></path><path fill="rgb(0,0,0)" stroke="rgb(0,0,0)" stroke-width="null" opacity="0" d="M 79.5 71 L 85 72 L 86 85 L 97 87.5 L 98 92.5 L 95.5 97 L 86 97 L 86 110.5 L 95 113 L 96 118.5 L 93.5 123 L 88.5 124 L 77 118.5 L 75 97 L 68 95.5 L 70.5 85 L 75 85 L 75 73.5 L 79.5 71 Z " style="stroke-dasharray: 161.774; stroke-dashoffset: 161.774; animation-delay: 0.0444444s; animation-duration: 0.356s;"></path><path fill="rgb(17,92,141)" stroke="rgb(17,92,141)" stroke-width="null" opacity="0.5372549019607843" d="M 116.5 39 L 127 39.5 L 116.5 40 L 116.5 39 Z " style="stroke-dasharray: 22.0238; stroke-dashoffset: 22.0238; animation-delay: 0.0666667s; animation-duration: 0.572108s;"></path><path fill="rgb(17,92,141)" stroke="rgb(17,92,141)" stroke-width="null" opacity="0.5372549019607843" d="M 106.5 40 L 112 40.5 L 106.5 41 L 106.5 40 Z " style="stroke-dasharray: 12.0454; stroke-dashoffset: 12.0454; animation-delay: 0.0888889s; animation-duration: 0.996608s;"></path><path fill="rgb(17,92,141)" stroke="rgb(17,92,141)" stroke-width="null" opacity="0.5372549019607843" d="M 129.5 40 L 135 40.5 L 129.5 41 L 129.5 40 Z " style="stroke-dasharray: 12.0454; stroke-dashoffset: 12.0454; animation-delay: 0.111111s; animation-duration: 0.996608s;"></path><path fill="rgb(17,92,141)" stroke="rgb(17,92,141)" stroke-width="null" opacity="0.5372549019607843" d="M 101.5 41 L 105 41.5 L 101.5 42 L 101.5 41 Z " style="stroke-dasharray: 8.07107; stroke-dashoffset: 8.07107; animation-delay: 0.133333s; animation-duration: 1.47s;"></path><path fill="rgb(17,92,141)" stroke="rgb(17,92,141)" stroke-width="null" opacity="0.5372549019607843" d="M 140.5 42 L 145 43.5 L 143.5 44 L 140.5 42 Z " style="stroke-dasharray: 9.93011; stroke-dashoffset: 9.93011; animation-delay: 0.155556s; animation-duration: 1.2007s;"></path><path fill="rgb(17,92,141)" stroke="rgb(17,92,141)" stroke-width="null" opacity="0.5372549019607843" d="M 146.5 44 L 162 55.5 L 164 59.5 L 163 59.5 L 154.5 49 L 146.5 44 Z " style="stroke-dasharray: 47.7156; stroke-dashoffset: 47.7156; animation-delay: 0.177778s; animation-duration: 0.329837s;"></path><path fill="rgb(17,92,141)" stroke="rgb(17,92,141)" stroke-width="null" opacity="0.5372549019607843" d="M 88.5 45 L 90 45.5 L 61 66.5 L 51.5 82 L 51 80.5 L 71.5 55 L 88.5 45 Z " style="stroke-dasharray: 109.589; stroke-dashoffset: 109.589; animation-delay: 0.2s; animation-duration: 0.299179s;"></path><path fill="rgb(17,92,141)" stroke="rgb(17,92,141)" stroke-width="null" opacity="0.5372549019607843" d="M 164.5 61 L 168 74.5 L 167 74.5 L 164.5 61 Z " style="stroke-dasharray: 28.6759; stroke-dashoffset: 28.6759; animation-delay: 0.222222s; animation-duration: 0.459994s;"></path><path fill="rgb(17,92,141)" stroke="rgb(17,92,141)" stroke-width="null" opacity="0.5372549019607843" d="M 127.5 68 L 132 68.5 L 127.5 69 L 127.5 68 Z " style="stroke-dasharray: 10.0554; stroke-dashoffset: 10.0554; animation-delay: 0.244444s; animation-duration: 1.18618s;"></path><path fill="rgb(17,92,141)" stroke="rgb(17,92,141)" stroke-width="null" opacity="0.5372549019607843" d="M 119.5 70 L 121 70.5 L 106 81.5 L 101.5 100 L 101 92.5 L 109.5 76 L 119.5 70 Z " style="stroke-dasharray: 76.9609; stroke-dashoffset: 76.9609; animation-delay: 0.266667s; animation-duration: 0.287485s;"></path><path fill="rgb(17,92,141)" stroke="rgb(17,92,141)" stroke-width="null" opacity="0.5372549019607843" d="M 76.5 71 L 79 71.5 L 75 73.5 L 74.5 85 L 74 73.5 L 76.5 71 Z " style="stroke-dasharray: 33.5789; stroke-dashoffset: 33.5789; animation-delay: 0.288889s; animation-duration: 0.40875s;"></path><path fill="rgb(17,92,141)" stroke="rgb(17,92,141)" stroke-width="null" opacity="0.5372549019607843" d="M 141.5 71 L 148 75.5 L 149 78.5 L 143.5 86 L 134 82.5 L 135.5 82 L 143.5 85 L 148 77.5 L 145.5 74 L 141.5 71 Z " style="stroke-dasharray: 58.6655; stroke-dashoffset: 58.6655; animation-delay: 0.311111s; animation-duration: 0.303053s;"></path><path fill="rgb(17,92,141)" stroke="rgb(17,92,141)" stroke-width="null" opacity="0.5372549019607843" d="M 85.5 72 L 87 84.5 L 86 84.5 L 85.5 72 Z " style="stroke-dasharray: 26.0997; stroke-dashoffset: 26.0997; animation-delay: 0.333333s; animation-duration: 0.495928s;"></path><path fill="rgb(17,92,141)" stroke="rgb(17,92,141)" stroke-width="null" opacity="0.5372549019607843" d="M 168.5 78 L 169 87.5 L 168 87.5 L 168.5 78 Z " style="stroke-dasharray: 20.0263; stroke-dashoffset: 20.0263; animation-delay: 0.355556s; animation-duration: 0.621825s;"></path><path fill="rgb(17,92,141)" stroke="rgb(17,92,141)" stroke-width="null" opacity="0.5372549019607843" d="M 127.5 81 L 132 81.5 L 127.5 82 L 127.5 81 Z " style="stroke-dasharray: 10.0554; stroke-dashoffset: 10.0554; animation-delay: 0.377778s; animation-duration: 1.18618s;"></path><path fill="rgb(17,92,141)" stroke="rgb(17,92,141)" stroke-width="null" opacity="0.5372549019607843" d="M 123.5 82 L 125 82.5 L 116 89.5 L 115 100.5 L 119.5 108 L 122 109.5 L 120.5 109 L 116 105.5 L 114 92.5 L 118.5 85 L 123.5 82 Z " style="stroke-dasharray: 70.7025; stroke-dashoffset: 70.7025; animation-delay: 0.4s; animation-duration: 0.290038s;"></path><path fill="rgb(17,92,141)" stroke="rgb(17,92,141)" stroke-width="null" opacity="0.5372549019607843" d="M 50.5 83 L 51 84.5 L 49.5 87 L 49 85.5 L 50.5 83 Z " style="stroke-dasharray: 8.99323; stroke-dashoffset: 8.99323; animation-delay: 0.422222s; animation-duration: 1.32233s;"></path><path fill="rgb(17,92,141)" stroke="rgb(17,92,141)" stroke-width="null" opacity="0.5372549019607843" d="M 90.5 84 L 94 84.5 L 90.5 85 L 90.5 84 Z " style="stroke-dasharray: 8.07107; stroke-dashoffset: 8.07107; animation-delay: 0.444444s; animation-duration: 1.47s;"></path><path fill="rgb(17,92,141)" stroke="rgb(17,92,141)" stroke-width="null" opacity="0.5372549019607843" d="M 68 85 L 70 85.5 L 68 95.5 L 75 97 Q 71.3 114.5 79.5 121 L 83 122.5 L 81.5 123 L 75 117.5 L 74 98 L 67 95.5 L 68 85 Z " style="stroke-dasharray: 96.5524; stroke-dashoffset: 96.5524; animation-delay: 0.466667s; animation-duration: 0.290822s;"></path><path fill="rgb(17,92,141)" stroke="rgb(17,92,141)" stroke-width="null" opacity="0.5372549019607843" d="M 95.5 85 L 98 86.5 L 97.5 89 L 95.5 85 Z " style="stroke-dasharray: 9.93712; stroke-dashoffset: 9.93712; animation-delay: 0.488889s; animation-duration: 1.19988s;"></path><path fill="rgb(17,92,141)" stroke="rgb(17,92,141)" stroke-width="null" opacity="0.5372549019607843" d="M 167.5 91 L 168 97.5 L 167 97.5 L 167.5 91 Z " style="stroke-dasharray: 14.0384; stroke-dashoffset: 14.0384; animation-delay: 0.511111s; animation-duration: 0.861606s;"></path><path fill="rgb(17,92,141)" stroke="rgb(17,92,141)" stroke-width="null" opacity="0.5372549019607843" d="M 97.5 93 L 98 95.5 L 96 96.5 L 97.5 93 Z " style="stroke-dasharray: 8.59346; stroke-dashoffset: 8.59346; animation-delay: 0.533333s; animation-duration: 1.38241s;"></path><path fill="rgb(17,92,141)" stroke="rgb(17,92,141)" stroke-width="null" opacity="0.5372549019607843" d="M 46.5 95 L 47 99.5 L 46 99.5 L 46.5 95 Z " style="stroke-dasharray: 10.0554; stroke-dashoffset: 10.0554; animation-delay: 0.555556s; animation-duration: 1.18618s;"></path><path fill="rgb(17,92,141)" stroke="rgb(17,92,141)" stroke-width="null" opacity="0.5372549019607843" d="M 86 97 L 95 97.5 L 87 98 L 88.5 111 L 92 111.5 L 87.5 112 L 86 97 Z " style="stroke-dasharray: 53.2538; stroke-dashoffset: 53.2538; animation-delay: 0.577778s; animation-duration: 0.313928s;"></path><path fill="rgb(17,92,141)" stroke="rgb(17,92,141)" stroke-width="null" opacity="0.5372549019607843" d="M 166.5 99 L 167 102.5 L 166 102.5 L 166.5 99 Z " style="stroke-dasharray: 8.07107; stroke-dashoffset: 8.07107; animation-delay: 0.6s; animation-duration: 1.47s;"></path><path fill="rgb(17,92,141)" stroke="rgb(17,92,141)" stroke-width="null" opacity="0.5372549019607843" d="M 102.5 101 L 113.5 119 L 118 121.5 L 116.5 121 L 107 114.5 L 102.5 101 Z " style="stroke-dasharray: 53.5651; stroke-dashoffset: 53.5651; animation-delay: 0.622222s; animation-duration: 0.313191s;"></path><path fill="rgb(17,92,141)" stroke="rgb(17,92,141)" stroke-width="null" opacity="0.5372549019607843" d="M 45.5 102 L 46 110.5 L 45 110.5 L 45.5 102 Z " style="stroke-dasharray: 18.0294; stroke-dashoffset: 18.0294; animation-delay: 0.644444s; animation-duration: 0.683315s;"></path><path fill="rgb(17,92,141)" stroke="rgb(17,92,141)" stroke-width="null" opacity="0.5372549019607843" d="M 140.5 107 L 146 109.5 L 149 115.5 L 144.5 121 L 139.5 123 L 139.5 122 L 147 117.5 L 148 115.5 L 142.5 108 L 134.5 111 L 134.5 110 L 140.5 107 Z " style="stroke-dasharray: 62.7765; stroke-dashoffset: 62.7765; animation-delay: 0.666667s; animation-duration: 0.297138s;"></path><path fill="rgb(17,92,141)" stroke="rgb(17,92,141)" stroke-width="null" opacity="0.5372549019607843" d="M 126.5 111 L 133 111.5 L 126.5 112 L 126.5 111 Z " style="stroke-dasharray: 14.0384; stroke-dashoffset: 14.0384; animation-delay: 0.688889s; animation-duration: 0.861606s;"></path><path fill="rgb(17,92,141)" stroke="rgb(17,92,141)" stroke-width="null" opacity="0.5372549019607843" d="M 93.5 112 L 96 113.5 L 95.5 116 L 95 113 L 93.5 112 Z " style="stroke-dasharray: 10.3091; stroke-dashoffset: 10.3091; animation-delay: 0.711111s; animation-duration: 1.15786s;"></path><path fill="rgb(17,92,141)" stroke="rgb(17,92,141)" stroke-width="null" opacity="0.5372549019607843" d="M 163.5 113 L 164 115.5 L 159.5 127 L 159 125.5 L 163.5 113 Z " style="stroke-dasharray: 29.7651; stroke-dashoffset: 29.7651; animation-delay: 0.733333s; animation-duration: 0.446907s;"></path><path fill="rgb(17,92,141)" stroke="rgb(17,92,141)" stroke-width="null" opacity="0.5372549019607843" d="M 95.5 119 L 96 121.5 L 91.5 124 L 91.5 123 L 95 121.5 L 95.5 119 Z " style="stroke-dasharray: 15.0547; stroke-dashoffset: 15.0547; animation-delay: 0.755556s; animation-duration: 0.80688s;"></path><path fill="rgb(17,92,141)" stroke="rgb(17,92,141)" stroke-width="null" opacity="0.5372549019607843" d="M 48.5 122 L 62 143.5 L 56 138.5 L 48.5 122 Z " style="stroke-dasharray: 51.3218; stroke-dashoffset: 51.3218; animation-delay: 0.777778s; animation-duration: 0.31885s;"></path><path fill="rgb(17,92,141)" stroke="rgb(17,92,141)" stroke-width="null" opacity="0.5372549019607843" d="M 119.5 122 L 124 123.5 L 121.5 124 L 119.5 122 Z " style="stroke-dasharray: 10.1214; stroke-dashoffset: 10.1214; animation-delay: 0.8s; animation-duration: 1.17868s;"></path><path fill="rgb(17,92,141)" stroke="rgb(17,92,141)" stroke-width="null" opacity="0.5372549019607843" d="M 84.5 123 L 88 123.5 L 84.5 124 L 84.5 123 Z " style="stroke-dasharray: 8.07107; stroke-dashoffset: 8.07107; animation-delay: 0.822222s; animation-duration: 1.47s;"></path><path fill="rgb(17,92,141)" stroke="rgb(17,92,141)" stroke-width="null" opacity="0.5372549019607843" d="M 126.5 124 L 134 124.5 L 126.5 125 L 126.5 124 Z " style="stroke-dasharray: 16.0333; stroke-dashoffset: 16.0333; animation-delay: 0.844444s; animation-duration: 0.760957s;"></path><path fill="rgb(17,92,141)" stroke="rgb(17,92,141)" stroke-width="null" opacity="0.5372549019607843" d="M 158.5 128 L 159 129.5 L 140.5 156 L 128.5 163 L 128.5 162 L 145 150.5 L 158.5 128 Z " style="stroke-dasharray: 95.1438; stroke-dashoffset: 95.1438; animation-delay: 0.866667s; animation-duration: 0.290156s;"></path><path fill="rgb(17,92,141)" stroke="rgb(17,92,141)" stroke-width="null" opacity="0.5372549019607843" d="M 66.5 148 L 88 161.5 L 86.5 162 L 66.5 148 Z " style="stroke-dasharray: 51.3813; stroke-dashoffset: 51.3813; animation-delay: 0.888889s; animation-duration: 0.31869s;"></path><path fill="rgb(17,92,141)" stroke="rgb(17,92,141)" stroke-width="null" opacity="0.5372549019607843" d="M 125.5 163 L 127 163.5 L 121.5 165 L 121.5 164 L 125.5 163 Z " style="stroke-dasharray: 12.4051; stroke-dashoffset: 12.4051; animation-delay: 0.911111s; animation-duration: 0.968948s;"></path><path fill="rgb(17,92,141)" stroke="rgb(17,92,141)" stroke-width="null" opacity="0.5372549019607843" d="M 101.5 165 L 107 165.5 L 101.5 166 L 101.5 165 Z " style="stroke-dasharray: 12.0454; stroke-dashoffset: 12.0454; animation-delay: 0.933333s; animation-duration: 0.996608s;"></path><path fill="rgb(17,92,141)" stroke="rgb(17,92,141)" stroke-width="null" opacity="0.5372549019607843" d="M 113.5 165 L 120 165.5 L 113.5 166 L 113.5 165 Z " style="stroke-dasharray: 14.0384; stroke-dashoffset: 14.0384; animation-delay: 0.955556s; animation-duration: 0.861606s;"></path><path fill="rgb(17,92,142)" stroke="rgb(17,92,142)" stroke-width="null" opacity="0.996078431372549" d="M 112.5 40 Q 146.9 37.6 161 55.5 Q 169.5 68 168 90.5 Q 163.8 132.3 140.5 155 Q 129.5 166 107.5 166 Q 77.3 162.7 62 144.5 Q 45.3 131.2 46 100.5 Q 51.4 70.9 71.5 56 Q 86.8 42.8 112.5 40 Z M 128 68 L 110 76 L 101 93 L 107 115 L 127 125 L 145 121 L 149 116 L 146 110 L 143 107 L 134 111 L 120 108 L 115 101 L 116 90 L 126 82 L 144 86 L 149 79 L 148 76 L 128 68 Z M 77 71 L 74 74 Q 79 88 68 85 L 67 96 L 74 98 L 75 118 Q 79 126 94 124 L 96 114 L 89 111 L 87 98 L 97 97 L 98 87 L 94 84 L 90 85 Q 84 86 87 74 L 77 71 Z " style="stroke-dasharray: 788.448; stroke-dashoffset: 788.448; animation-delay: 0.977778s; animation-duration: 1.39596s;"></path></svg>